<?xml version="1.0" standalone="no"?><!DOCTYPE svg PUBLIC "-//W3C//DTD SVG 1.1//EN" "http://www.w3.org/Graphics/SVG/1.1/DTD/svg11.dtd"><svg class="search" viewBox="0 0 25 24" version="1.1" xmlns="http://www.w3.org/2000/svg" xmlns:xlink="http://www.w3.org/1999/xlink" xml:space="preserve" style="fill-rule:evenodd;clip-rule:evenodd;stroke-linejoin:round;stroke-miterlimit:1.41421;"><path d="M9.162,0.001c0.421,0.008 0.841,0.039 1.258,0.103c0.846,0.129 1.672,0.38 2.447,0.742c1.847,0.863 3.374,2.354 4.282,4.179c0.379,0.764 0.65,1.581 0.8,2.421c0.168,0.943 0.186,1.913 0.053,2.862c-0.129,0.921 -0.401,1.82 -0.805,2.658c-0.473,0.981 -1.124,1.874 -1.912,2.625c-0.816,0.778 -1.777,1.402 -2.821,1.829c-1.083,0.443 -2.249,0.67 -3.419,0.67c-1.169,0 -2.336,-0.227 -3.418,-0.67c-1.044,-0.427 -2.005,-1.051 -2.822,-1.829c-0.787,-0.751 -1.439,-1.644 -1.912,-2.625c-0.403,-0.838 -0.676,-1.737 -0.805,-2.658c-0.133,-0.949 -0.115,-1.919 0.053,-2.862c0.151,-0.84 0.421,-1.657 0.801,-2.421c0.907,-1.825 2.434,-3.316 4.281,-4.179c0.775,-0.362 1.601,-0.613 2.447,-0.742c0.417,-0.064 0.837,-0.095 1.259,-0.103c0.117,-0.001 0.116,-0.001 0.233,0ZM8.966,2.97c-0.284,0.006 -0.566,0.027 -0.847,0.07c-0.566,0.087 -1.12,0.254 -1.639,0.497c-1.196,0.559 -2.195,1.511 -2.812,2.679c-0.266,0.504 -0.46,1.046 -0.574,1.604c-0.14,0.681 -0.161,1.387 -0.065,2.075c0.083,0.593 0.255,1.173 0.508,1.715c0.31,0.663 0.741,1.269 1.265,1.781c0.542,0.529 1.183,0.956 1.88,1.252c0.722,0.305 1.501,0.466 2.284,0.476c0.787,0.01 1.573,-0.131 2.305,-0.42c0.705,-0.279 1.356,-0.691 1.911,-1.207c0.536,-0.499 0.981,-1.094 1.307,-1.75c0.277,-0.557 0.467,-1.156 0.561,-1.771c0.101,-0.663 0.093,-1.342 -0.025,-2.002c-0.1,-0.563 -0.282,-1.11 -0.536,-1.622c-0.588,-1.182 -1.564,-2.158 -2.746,-2.746c-0.512,-0.255 -1.059,-0.436 -1.622,-0.536c-0.278,-0.05 -0.558,-0.078 -0.84,-0.091c-0.105,-0.003 -0.21,-0.004 -0.315,-0.004Z" style="fill:#fff;fill-rule:nonzero;"/><path d="M14.878,12.44c0.249,0.02 0.488,0.09 0.701,0.223c0.077,0.048 0.147,0.104 0.215,0.163c2.699,2.579 5.279,5.278 7.918,7.917c0.157,0.164 0.281,0.352 0.355,0.569c0.058,0.17 0.085,0.351 0.079,0.532c-0.006,0.18 -0.045,0.359 -0.115,0.525c-0.061,0.145 -0.146,0.281 -0.25,0.4c-0.361,0.414 -0.937,0.597 -1.471,0.467c-0.244,-0.06 -0.46,-0.182 -0.649,-0.346c-2.698,-2.579 -5.279,-5.278 -7.918,-7.917c-0.157,-0.165 -0.281,-0.353 -0.355,-0.569c-0.17,-0.497 -0.059,-1.061 0.286,-1.457c0.104,-0.119 0.226,-0.221 0.362,-0.302c0.197,-0.116 0.413,-0.179 0.639,-0.202c0.068,-0.004 0.135,-0.005 0.203,-0.003Z" style="fill:#fff;fill-rule:nonzero;"/></svg>