<?xml version="1.0" standalone="no"?><!DOCTYPE svg PUBLIC "-//W3C//DTD SVG 1.1//EN" "http://www.w3.org/Graphics/SVG/1.1/DTD/svg11.dtd"><svg class="switch" viewBox="0 0 22 17" version="1.1" xmlns="http://www.w3.org/2000/svg" xmlns:xlink="http://www.w3.org/1999/xlink" xml:space="preserve" style="fill-rule:evenodd;clip-rule:evenodd;stroke-linejoin:round;stroke-miterlimit:1.41421;"><path d="M7.318,13.224c-0.088,0 -0.161,-0.073 -0.161,-0.161l0,-2.974c0,-0.088 0.073,-0.161 0.161,-0.161l9.139,0c0.088,0 0.161,-0.073 0.161,-0.161l0,-2.405c0,-0.001 0,-0.003 0,-0.004c0,-0.113 0.092,-0.205 0.205,-0.205c0.056,0 0.11,0.023 0.149,0.064l4.245,4.24c0.03,0.03 0.047,0.071 0.047,0.114c0,0.043 -0.017,0.084 -0.047,0.114l-4.32,4.325c-0.03,0.031 -0.072,0.048 -0.115,0.048c-0.088,0 -0.161,-0.072 -0.161,-0.161l0,-0.001l0,-2.51l0,-0.001c0,-0.088 -0.073,-0.161 -0.161,-0.161c-0.001,0 -0.002,0 -0.003,0l-9.139,0l0,0Z" style="fill:#fff;"/><path d="M13.946,2.834c0.088,0 0.161,0.073 0.161,0.161l0,2.974c0,0.088 -0.073,0.161 -0.161,0.161l-9.139,0c-0.088,0 -0.161,0.073 -0.161,0.161l0,2.409c0,0.113 -0.092,0.205 -0.205,0.205c-0.056,0 -0.11,-0.023 -0.149,-0.064l-4.245,-4.24c-0.03,-0.03 -0.047,-0.071 -0.047,-0.114c0,-0.043 0.017,-0.084 0.047,-0.114l4.32,-4.325c0.03,-0.031 0.072,-0.048 0.115,-0.048c0.088,0 0.161,0.072 0.161,0.161l0,2.512c0,0.088 0.073,0.161 0.161,0.161l9.142,0Z" style="fill:#fff;"/></svg>